<svg version="1.1" xmlns="http://www.w3.org/2000/svg" xmlns:xlink="http://www.w3.org/1999/xlink">
<defs>
<symbol id="apple-icon" viewBox="0 0 26 32">
<path d="M17.239 3.716c0.12-0.037 0.232-0.097 0.329-0.177s0.176-0.18 0.234-0.291c0.058-0.112 0.093-0.234 0.102-0.36s-0.006-0.252-0.046-0.371c-0.040-0.119-0.103-0.229-0.187-0.324s-0.184-0.171-0.298-0.226c-0.113-0.055-0.237-0.086-0.362-0.092s-0.251 0.013-0.369 0.056c-1.766 0.587-2.865 2.037-3.512 3.59-0.087 0.21-0.167 0.423-0.239 0.638-0.353-0.668-0.804-1.279-1.338-1.813-0.724-0.725-1.588-1.295-2.539-1.673s-1.971-0.559-2.995-0.529c-1.092 0.030-1.963 0.904-1.993 1.993-0.030 1.024 0.15 2.043 0.529 2.995s0.948 1.816 1.673 2.539l0.058 0.056c-1.581 0.342-3.010 1.185-4.075 2.403s-1.71 2.746-1.839 4.359l-0.011 0.139c-0.248 3.101 0.412 6.206 1.901 8.937l0.678 1.239c0.019 0.032 0.038 0.064 0.060 0.094l1.882 2.639c0.427 0.597 0.978 1.095 1.617 1.457s1.348 0.582 2.080 0.642c0.732 0.060 1.468-0.039 2.157-0.292s1.315-0.653 1.834-1.172c0.080-0.080 0.174-0.143 0.278-0.186s0.216-0.065 0.329-0.065c0.113 0 0.224 0.022 0.329 0.065s0.199 0.106 0.278 0.186c0.519 0.519 1.145 0.919 1.834 1.172s1.425 0.352 2.157 0.292c0.732-0.061 1.441-0.28 2.080-0.642s1.19-0.86 1.617-1.457l1.882-2.637c0.022-0.031 0.042-0.063 0.060-0.096l0.676-1.239c1.489-2.731 2.15-5.837 1.901-8.937l-0.009-0.139c-0.083-1.039-0.382-2.050-0.876-2.968s-1.174-1.724-1.996-2.365-1.768-1.106-2.779-1.362c-1.011-0.257-2.064-0.301-3.092-0.129l-3.119 0.52c0.019-1.282 0.245-2.724 0.751-3.94 0.527-1.271 1.31-2.174 2.368-2.528h0.002zM7.357 15.010c-0.289 0.091-0.557 0.239-0.789 0.434s-0.422 0.435-0.561 0.704c-0.348 0.655-0.587 1.736-0.367 3.499 0.025 0.245-0.047 0.489-0.2 0.681s-0.375 0.317-0.619 0.347c-0.244 0.030-0.49-0.036-0.686-0.184s-0.326-0.368-0.362-0.611c-0.25-2.003-0.019-3.511 0.574-4.619 0.602-1.129 1.519-1.739 2.415-2.039 0.117-0.039 0.241-0.055 0.364-0.046s0.244 0.042 0.354 0.097c0.111 0.055 0.209 0.132 0.29 0.225s0.143 0.202 0.182 0.319c0.039 0.117 0.055 0.241 0.046 0.364s-0.042 0.244-0.097 0.354c-0.055 0.111-0.132 0.209-0.225 0.29s-0.202 0.143-0.319 0.182z"></path>
</symbol>
<symbol id="bubble-icon" viewBox="0 0 32 32">
<path fill="#ef8964" style="fill: var(--color3, #ef8964)" d="M20.79 16.346c3.778 0 6.84-3.062 6.84-6.84s-3.062-6.84-6.84-6.84c-3.778 0-6.84 3.062-6.84 6.84s3.062 6.84 6.84 6.84z"></path>
<path fill="#ef8964" style="fill: var(--color3, #ef8964)" d="M8.475 25.919c2.268 0 4.107-1.839 4.107-4.107s-1.839-4.107-4.107-4.107c-2.268 0-4.107 1.839-4.107 4.107s1.839 4.107 4.107 4.107z"></path>
<path fill="#ef8964" style="fill: var(--color3, #ef8964)" d="M22.151 29.332c1.885 0 3.413-1.528 3.413-3.413s-1.528-3.413-3.413-3.413c-1.885 0-3.413 1.528-3.413 3.413s1.528 3.413 3.413 3.413z"></path>
</symbol>
<symbol id="dumbbell-icon" viewBox="0 0 32 32">
<path fill="#ef8964" style="fill: var(--color3, #ef8964)" d="M5.2 8h-2.4c-0.665 0-1.2 0.535-1.2 1.2v5.2h-1.2c-0.22 0-0.4 0.18-0.4 0.4v2.4c0 0.22 0.18 0.4 0.4 0.4h1.2v5.2c0 0.665 0.535 1.2 1.2 1.2h2.4c0.665 0 1.2-0.535 1.2-1.2v-13.6c0-0.665-0.535-1.2-1.2-1.2zM31.6 14.4h-1.2v-5.2c0-0.665-0.535-1.2-1.2-1.2h-2.4c-0.665 0-1.2 0.535-1.2 1.2v13.6c0 0.665 0.535 1.2 1.2 1.2h2.4c0.665 0 1.2-0.535 1.2-1.2v-5.2h1.2c0.22 0 0.4-0.18 0.4-0.4v-2.4c0-0.22-0.18-0.4-0.4-0.4zM22.8 4.8h-2.4c-0.665 0-1.2 0.535-1.2 1.2v8.4h-6.4v-8.4c0-0.665-0.535-1.2-1.2-1.2h-2.4c-0.665 0-1.2 0.535-1.2 1.2v20c0 0.665 0.535 1.2 1.2 1.2h2.4c0.665 0 1.2-0.535 1.2-1.2v-8.4h6.4v8.4c0 0.665 0.535 1.2 1.2 1.2h2.4c0.665 0 1.2-0.535 1.2-1.2v-20c0-0.665-0.535-1.2-1.2-1.2z"></path>
</symbol>
<symbol id="fire-icon" viewBox="0 0 26 32">
<path fill="#ef8964" style="fill: var(--color3, #ef8964)" d="M12.798 22.291c-0.946 0.72-2.898 2.5-2.898 4.925 0 1.601 1.3 2.904 2.897 2.904s2.897-1.303 2.897-2.904c0-2.297-1.954-4.161-2.895-4.925z"></path>
<path fill="#ef8964" style="fill: var(--color3, #ef8964)" d="M19.59 5.57c-0.351-0.397-0.958-0.421-1.34-0.064l-4.412 4.117v-8.623c0-0.722-0.87-1.261-1.522-0.867-0.123 0.075-3.055 1.865-6.017 5.116-3.602 3.953-6.055 8.766-6.055 14.164 0 6.941 5.633 12.587 12.557 12.587-2.631 0-4.772-2.146-4.772-4.784 0-4.262 4.138-6.786 4.314-6.891 0.309-0.184 0.695-0.176 0.996 0.022 0.173 0.114 4.234 2.838 4.234 6.869 0 2.638-2.141 4.784-4.772 4.784 6.924 0 12.557-5.647 12.557-12.587 0-5.241-2.313-9.938-5.767-13.843z"></path>
</symbol>
<symbol id="fork-and-knife-icon" viewBox="0 0 24 32">
<path fill="#ef8964" style="fill: var(--color3, #ef8964)" d="M21.995 1c0.408 0 0.802 0.15 1.107 0.421s0.5 0.645 0.548 1.050l0.012 0.195v26.667c-0 0.425-0.163 0.833-0.455 1.142s-0.69 0.495-1.114 0.52c-0.424 0.025-0.842-0.113-1.167-0.386s-0.535-0.659-0.585-1.081l-0.012-0.195v-8.333h-1.667c-0.408 0-0.802-0.15-1.107-0.421s-0.5-0.645-0.548-1.050l-0.012-0.195v-10c0-3.683 2.5-8.333 5-8.333zM11.995 1c0.408 0 0.802 0.15 1.107 0.421s0.5 0.645 0.548 1.050l0.012 0.195v8.333c-0 1.478-0.491 2.914-1.396 4.083s-2.173 2.004-3.604 2.374v11.877c-0 0.425-0.163 0.833-0.455 1.142s-0.69 0.495-1.114 0.52c-0.424 0.025-0.842-0.113-1.167-0.386s-0.535-0.659-0.585-1.081l-0.012-0.195v-11.877c-1.374-0.355-2.599-1.14-3.497-2.239s-1.421-2.457-1.495-3.874l-0.008-0.343v-8.333c0-0.425 0.163-0.833 0.455-1.142s0.69-0.495 1.114-0.52c0.424-0.025 0.842 0.113 1.167 0.386s0.535 0.659 0.585 1.081l0.012 0.195v8.333c0 0.585 0.154 1.16 0.447 1.667s0.713 0.928 1.22 1.22v-11.22c0-0.425 0.163-0.833 0.455-1.142s0.69-0.495 1.114-0.52c0.424-0.025 0.842 0.113 1.167 0.386s0.535 0.659 0.585 1.081l0.012 0.195 0.002 11.22c0.465-0.269 0.858-0.646 1.146-1.1s0.462-0.97 0.507-1.505l0.012-0.282v-8.333c0-0.442 0.176-0.866 0.488-1.179s0.736-0.488 1.179-0.488z"></path>
</symbol>
<symbol id="run-icon" viewBox="0 0 32 32">
<path  d="M25.098 11.634c-0.279-0.334-0.777-0.378-1.111-0.099l-2.188 1.838-1.006-2.493c-0.036-0.094-0.090-0.172-0.153-0.241-0.206-0.457-0.563-0.85-1.055-1.078-0.214-0.097-0.434-0.149-0.655-0.174-0.049-0.025-0.093-0.059-0.148-0.076l-3.85-1.073c-0.216-0.059-0.433-0.021-0.611 0.083-0.211 0.072-0.393 0.225-0.479 0.448l-1.45 3.728c-0.157 0.405 0.044 0.863 0.451 1.022 0.404 0.157 0.863-0.045 1.021-0.452l1.225-3.148 1.754 0.488c-0.043 0.069-0.089 0.134-0.124 0.208l-2.248 4.873c-0.032 0.072-0.050 0.144-0.073 0.218l-2.732 4.58-4.572 1.529c-0.518 0.387-0.627 1.116-0.245 1.633 0.385 0.519 1.116 0.628 1.632 0.246l4.679-1.612c0.143-0.104 0.247-0.24 0.326-0.387 0.059-0.062 0.126-0.112 0.171-0.189l1.629-2.731 2.891 2.464-3.094 3.487c-0.426 0.481-0.383 1.221 0.099 1.646 0.482 0.429 1.22 0.383 1.648-0.099l3.861-4.349c0.12-0.134 0.192-0.289 0.24-0.451 0.029-0.088 0.029-0.179 0.036-0.27 0-0.046 0.017-0.088 0.014-0.131-0.010-0.319-0.14-0.628-0.401-0.849l-2.661-2.269c0.192-0.183 0.355-0.4 0.473-0.655l1.724-3.733 0.552 1.471c0.023 0.131 0.067 0.259 0.159 0.366 0.083 0.099 0.189 0.165 0.303 0.211 0.012 0.006 0.025 0.007 0.039 0.010 0.072 0.025 0.144 0.050 0.219 0.053 0.089 0.008 0.179-0.003 0.27-0.029 0.002-0.001 0.003-0.001 0.003-0.001 0.024-0.006 0.049-0.001 0.073-0.012 0.128-0.048 0.226-0.131 0.311-0.226l3.14-2.665c0.334-0.281 0.193-0.777-0.088-1.111z"></path>
<path  d="M21.128 9.735c1.215 0 2.201-0.985 2.201-2.201s-0.985-2.201-2.201-2.201c-1.215 0-2.201 0.985-2.201 2.201s0.985 2.201 2.201 2.201z"></path>
</symbol>
</defs>
</svg>
